<?xml version="1.0" encoding="UTF-8"?>
<!DOCTYPE svg PUBLIC "-//W3C//DTD SVG 1.1//EN" "http://www.w3.org/Graphics/SVG/1.1/DTD/svg11.dtd">
<!-- Creator: CorelDRAW X7 -->
<svg xmlns="http://www.w3.org/2000/svg" xml:space="preserve" width="1.2in" height="1.2in" version="1.1" style="shape-rendering:geometricPrecision; text-rendering:geometricPrecision; image-rendering:optimizeQuality; fill-rule:evenodd; clip-rule:evenodd"
viewBox="0 0 316 316"
 xmlns:xlink="http://www.w3.org/1999/xlink">
 <defs>
  <style type="text/css">
   <![CDATA[
    .fil2 {fill:#384053}
    .fil0 {fill:#46DBBD}
    .fil1 {fill:#FFD584}
   ]]>
  </style>
 </defs>
 <g id="Layer_x0020_1">
  <metadata id="CorelCorpID_0Corel-Layer"/>
  <circle class="fil0" cx="158" cy="158" r="158"/>
  <g id="_321533856">
   <path class="fil1" d="M157 97c2,8 8,87 7,92 5,10 -5,25 12,25 21,-1 14,-3 30,6l47 29c2,-2 2,-1 0,-2l-3 -4c-7,-7 -26,-25 -29,-31 37,-3 34,6 34,-34 0,-23 0,-46 0,-68 0,-21 0,-16 -47,-21 -10,-2 -20,-3 -31,-4 -14,-1 -19,-4 -20,12z"/>
   <path class="fil2" d="M164 189c1,-5 -5,-84 -7,-92 -18,1 -36,2 -54,3 -9,0 -18,0 -27,1 -26,1 -19,11 -13,61 3,31 -1,34 23,33l-13 31c4,-2 6,-4 8,-7l26 -23c4,-5 16,-4 27,-5 8,-1 23,-3 30,-2z"/>
  </g>
 </g>
</svg>
