<?xml version="1.0" encoding="UTF-8"?>
<!DOCTYPE svg PUBLIC "-//W3C//DTD SVG 1.1//EN" "http://www.w3.org/Graphics/SVG/1.1/DTD/svg11.dtd">
<!-- Creator: CorelDRAW X7 -->
<svg xmlns="http://www.w3.org/2000/svg" xml:space="preserve" width="1.2in" height="1.2in" version="1.1" style="shape-rendering:geometricPrecision; text-rendering:geometricPrecision; image-rendering:optimizeQuality; fill-rule:evenodd; clip-rule:evenodd"
viewBox="0 0 316 316"
 xmlns:xlink="http://www.w3.org/1999/xlink">
 <defs>
  <style type="text/css">
   <![CDATA[
    .fil1 {fill:#5F481D}
    .fil0 {fill:#6FC3FC}
    .fil5 {fill:#9EA2A3}
    .fil4 {fill:#BDC3C5}
    .fil7 {fill:#E8E8E8}
    .fil6 {fill:#EAEFF3}
    .fil2 {fill:#EBBC73}
    .fil3 {fill:#FEFEFE}
   ]]>
  </style>
 </defs>
 <g id="Layer_x0020_1">
  <metadata id="CorelCorpID_0Corel-Layer"/>
  <circle class="fil0" cx="158" cy="158" r="158"/>
  <g id="_322036416">
   <rect class="fil1" x="88" y="65" width="146" height="188" rx="4" ry="4"/>
   <rect class="fil2" x="88" y="62" width="146" height="188" rx="4" ry="4"/>
   <path class="fil3" d="M97 71l106 0 0 21 21 0 0 146 -127 0 0 -8 6 0c0,1 2,2 3,2 3,0 4,-2 4,-4 0,-2 -1,-4 -4,-4 -1,0 -3,1 -3,2l-6 0 0 -10 6 0c0,2 2,3 3,3 3,0 4,-2 4,-4 0,-2 -1,-4 -4,-4 -1,0 -3,1 -3,2l-6 0 0 -10 6 0c0,1 2,2 3,2 3,0 4,-1 4,-4 0,-2 -1,-4 -4,-4 -1,0 -3,1 -3,3l-6 0 0 -10 6 0c0,1 2,2 3,2 3,0 4,-2 4,-4 0,-2 -1,-4 -4,-4 -1,0 -3,1 -3,2l-6 0 0 -10 6 0c0,2 2,3 3,3 3,0 4,-2 4,-4 0,-3 -1,-4 -4,-4 -1,0 -3,1 -3,2l-6 0 0 -10 6 0c0,1 2,2 3,2 3,0 4,-2 4,-4 0,-2 -1,-4 -4,-4 -1,0 -3,1 -3,2l-6 0 0 -9 6 0c0,1 2,2 3,2 3,0 4,-2 4,-4 0,-2 -1,-4 -4,-4 -1,0 -3,1 -3,2l-6 0 0 -10 6 0c0,1 2,2 3,2 3,0 4,-1 4,-4 0,-2 -1,-4 -4,-4 -1,0 -3,1 -3,3l-6 0 0 -10 6 0c0,1 2,2 3,2 3,0 4,-2 4,-4 0,-2 -1,-4 -4,-4 -1,0 -3,1 -3,2l-6 0 0 -10 6 0c0,2 2,3 3,3 3,0 4,-2 4,-4 0,-3 -1,-4 -4,-4 -1,0 -3,1 -3,2l-6 0 0 -10 6 0c0,1 2,2 3,2 3,0 4,-2 4,-4 0,-2 -1,-4 -4,-4 -1,0 -3,1 -3,3l-6 0 0 -10 6 0c0,1 2,2 3,2 3,0 4,-2 4,-4 0,-2 -1,-4 -4,-4 -1,0 -3,1 -3,2l-6 0 0 -8z"/>
   <path class="fil4" d="M131 66l18 0 0 -11 0 0 0 -1c0,-4 4,-8 9,-8 4,0 8,4 8,8l0 1 0 0 0 11 18 0c2,0 4,2 4,5l0 5 -61 0 0 -5c0,-3 2,-5 4,-5zm27 -14c2,0 4,2 4,4 0,3 -2,5 -4,5 -3,0 -5,-2 -5,-5 0,-2 2,-4 5,-4z"/>
   <rect class="fil5" x="127" y="76" width="60.5243" height="2.29728"/>
   <path class="fil6" d="M202 71l22 21 -21 0c0,0 0,-21 -1,-21z"/>
   <path class="fil7" d="M224 94c0,0 -21,-2 -21,-2l21 0 0 2z"/>
  </g>
 </g>
</svg>
