<?xml version="1.0" encoding="UTF-8"?>
<!DOCTYPE svg PUBLIC "-//W3C//DTD SVG 1.1//EN" "http://www.w3.org/Graphics/SVG/1.1/DTD/svg11.dtd">
<!-- Creator: CorelDRAW X7 -->
<svg xmlns="http://www.w3.org/2000/svg" xml:space="preserve" width="0.509874in" height="0.509882in" version="1.1" style="shape-rendering:geometricPrecision; text-rendering:geometricPrecision; image-rendering:optimizeQuality; fill-rule:evenodd; clip-rule:evenodd"
viewBox="0 0 2384 2384"
 xmlns:xlink="http://www.w3.org/1999/xlink">
 <defs>
  <style type="text/css">
   <![CDATA[
    .fil0 {fill:#4C67A2}
   ]]>
  </style>
 </defs>
 <g id="Layer_x0020_1">
  <metadata id="CorelCorpID_0Corel-Layer"/>
  <path class="fil0" d="M2384 2252c0,73 -59,132 -132,132l-607 0 0 -923 310 0 46 -360 -356 0 0 -230c0,-104 29,-175 178,-175l191 0 0 -322c-33,-4 -146,-14 -278,-14 -275,0 -463,168 -463,476l0 265 -310 0 0 360 310 0 0 923 -1141 0c-73,0 -132,-59 -132,-132l0 -2120c0,-73 59,-132 132,-132l2120 0c73,0 132,59 132,132l0 2120z"/>
 </g>
</svg>
