<?xml version="1.0" encoding="UTF-8"?>
<!DOCTYPE svg PUBLIC "-//W3C//DTD SVG 1.1//EN" "http://www.w3.org/Graphics/SVG/1.1/DTD/svg11.dtd">
<!-- Creator: CorelDRAW X7 -->
<svg xmlns="http://www.w3.org/2000/svg" xml:space="preserve" width="0.560461in" height="0.356657in" version="1.1" style="shape-rendering:geometricPrecision; text-rendering:geometricPrecision; image-rendering:optimizeQuality; fill-rule:evenodd; clip-rule:evenodd"
viewBox="0 0 129 82"
 xmlns:xlink="http://www.w3.org/1999/xlink">
 <defs>
  <style type="text/css">
   <![CDATA[
    .fil0 {fill:#EF4B3B}
   ]]>
  </style>
 </defs>
 <g id="Layer_x0020_1">
  <metadata id="CorelCorpID_0Corel-Layer"/>
  <path class="fil0" d="M41 33l0 16c0,0 16,0 22,0 -3,11 -9,17 -22,17 -13,0 -24,-11 -24,-25 0,-13 11,-24 24,-24 7,0 12,2 16,6 3,-4 3,-4 12,-12 -8,-7 -17,-11 -28,-11 -23,0 -41,18 -41,41 0,23 18,41 41,41 34,0 42,-29 40,-49l-40 0z"/>
  <polygon class="fil0" points="115,34 115,20 105,20 105,34 90,34 90,44 105,44 105,59 115,59 115,44 129,44 129,34 "/>
 </g>
</svg>
