<?xml version="1.0" encoding="UTF-8"?>
<!DOCTYPE svg PUBLIC "-//W3C//DTD SVG 1.1//EN" "http://www.w3.org/Graphics/SVG/1.1/DTD/svg11.dtd">
<!-- Creator: CorelDRAW X7 -->
<svg xmlns="http://www.w3.org/2000/svg" xml:space="preserve" width="0.512366in" height="0.46578in" version="1.1" style="shape-rendering:geometricPrecision; text-rendering:geometricPrecision; image-rendering:optimizeQuality; fill-rule:evenodd; clip-rule:evenodd"
viewBox="0 0 61 55"
 xmlns:xlink="http://www.w3.org/1999/xlink">
 <defs>
  <style type="text/css">
   <![CDATA[
    .fil0 {fill:#2582BC}
   ]]>
  </style>
 </defs>
 <g id="Layer_x0020_1">
  <metadata id="CorelCorpID_0Corel-Layer"/>
  <polygon class="fil0" points="2,55 13,55 13,18 2,18 "/>
  <path class="fil0" d="M46 17c-7,0 -11,4 -12,7l0 -6 -13 0c0,3 0,37 0,37l13 0 0 -20c0,-1 0,-2 0,-3 1,-2 3,-5 7,-5 4,0 6,4 6,9l0 19 14 0 0 -21c0,-11 -7,-17 -15,-17z"/>
  <path class="fil0" d="M7 0c-4,0 -7,3 -7,6 0,4 3,7 7,7l0 0c5,0 7,-3 7,-7 0,-3 -2,-6 -7,-6z"/>
 </g>
</svg>
