<?xml version="1.0" encoding="UTF-8"?>
<!DOCTYPE svg PUBLIC "-//W3C//DTD SVG 1.1//EN" "http://www.w3.org/Graphics/SVG/1.1/DTD/svg11.dtd">
<!-- Creator: CorelDRAW X7 -->
<svg xmlns="http://www.w3.org/2000/svg" xml:space="preserve" width="1.2in" height="1.2in" version="1.1" style="shape-rendering:geometricPrecision; text-rendering:geometricPrecision; image-rendering:optimizeQuality; fill-rule:evenodd; clip-rule:evenodd"
viewBox="0 0 316 316"
 xmlns:xlink="http://www.w3.org/1999/xlink">
 <defs>
  <style type="text/css">
   <![CDATA[
    .fil3 {fill:#44723D}
    .fil2 {fill:#5C9A54}
    .fil1 {fill:#A0D899}
    .fil0 {fill:#FFE185}
   ]]>
  </style>
 </defs>
 <g id="Layer_x0020_1">
  <metadata id="CorelCorpID_0Corel-Layer"/>
  <circle class="fil0" cx="158" cy="158" r="158"/>
  <path class="fil1" d="M149 126c21,-1 43,3 56,14 3,2 3,2 5,5 5,7 0,13 -6,17 -7,5 -19,7 -29,7 -15,1 -32,-2 -46,-8 -7,-3 -18,-10 -17,-18 0,-5 4,-9 8,-11 7,-4 19,-6 29,-6zm-80 19c4,1 11,7 5,14 -1,1 -2,1 -4,3 1,1 7,4 9,5l20 11c6,3 4,3 12,2 26,-4 35,6 38,5l58 -18c5,-2 45,-14 46,-15 -8,-3 -11,-10 -6,-14 2,-2 4,-2 6,-4l-35 -18c-2,-1 -4,0 -6,0 -11,2 -23,1 -33,-2 -2,-1 -5,-3 -6,-3 -1,0 -54,17 -58,18l-43 14c-1,1 -1,1 -2,1l-1 1z"/>
  <path class="fil2" d="M70 144c1,0 1,0 2,-1l43 -14c4,-1 57,-18 58,-18 1,0 4,2 6,3 10,3 22,4 33,2 2,0 4,-1 6,0l35 18c-2,2 -4,2 -6,4 -5,4 -2,11 6,14 -1,1 -41,13 -46,15l-58 18c-3,1 -12,-9 -38,-5 -8,1 -6,1 -12,-2l-20 -11c-2,-1 -8,-4 -9,-5 2,-2 3,-2 4,-3 6,-7 -1,-13 -5,-14l1 -1zm-28 6c0,3 3,4 5,5 3,1 5,2 7,3l42 22c4,2 9,5 13,7 17,8 14,11 31,5 26,-9 53,-17 79,-25l60 -19c2,-1 3,-1 3,-3l-27 -14c-10,-5 -19,-9 -28,-14 -4,-3 -9,-5 -13,-7 -3,-2 -5,-3 -7,-4 -11,-6 -12,-4 -24,-1 -26,9 -53,17 -79,25 -18,6 -37,12 -55,18l-7 2z"/>
  <path class="fil2" d="M189 160c-1,0 -3,1 -4,1 -2,1 -3,0 -4,-1 -4,-2 -4,-1 -8,1 -9,3 -6,-2 -17,-4 4,-2 11,-1 12,-5 0,-5 -27,1 -35,-7 -5,-5 1,-8 1,-9 -1,0 -3,-1 -4,-2 2,-1 6,-3 8,-2 5,2 1,2 9,1 2,-1 9,-2 11,-1 1,1 5,5 6,6 -5,0 -10,0 -15,2 1,8 26,-1 36,7 6,6 -1,9 -1,9 1,2 4,2 5,4zm-40 -34c-10,0 -22,2 -29,6 -4,2 -8,6 -8,11 -1,8 10,15 17,18 14,6 31,9 46,8 10,0 22,-2 29,-7 6,-4 11,-10 6,-17 -2,-3 -2,-3 -5,-5 -13,-11 -35,-15 -56,-14z"/>
  <path class="fil3" d="M42 150c-1,1 -1,1 -1,2 0,1 0,2 0,2 0,2 0,3 1,3 -1,0 -1,0 0,1 -1,1 -1,4 -1,6l2 1c2,0 11,6 14,7l40 21c4,2 9,5 13,7 19,8 11,9 30,3 5,-1 10,-3 15,-5 11,-3 22,-6 32,-9 20,-7 42,-14 62,-20 4,-1 29,-10 31,-9 1,-1 1,-1 2,-1 2,-2 0,-6 0,-7 0,2 -1,2 -3,3l-60 19c-26,9 -53,17 -79,25 -17,6 -14,3 -31,-5 -4,-2 -9,-5 -13,-7l-42 -21c-2,-2 -4,-3 -7,-4 -2,-1 -5,-2 -5,-4l0 -1c2,1 24,12 27,14 17,9 38,20 55,28 4,2 12,-1 16,-3 5,-2 10,-3 15,-5 21,-6 42,-13 63,-19 11,-4 21,-7 32,-10 4,-2 29,-10 31,-10 2,-1 2,0 2,-3 0,-2 0,-3 -1,-4 0,2 -1,2 -3,3l-60 19c-26,8 -53,16 -79,25 -17,6 -14,3 -31,-5 -4,-2 -9,-5 -13,-7l-42 -22c-2,-1 -4,-2 -7,-3 -2,-1 -5,-2 -5,-5z"/>
  <path class="fil3" d="M42 166c-1,1 -1,5 0,7 -1,0 -1,-1 0,0 -1,1 -1,4 -1,6l2 1c2,1 61,32 67,35 19,9 13,9 30,4 5,-2 10,-4 15,-5 22,-7 41,-13 63,-20 10,-3 21,-6 31,-10 4,-1 29,-9 31,-9 1,-1 1,-1 2,-1 2,-1 0,-6 0,-6 0,2 -1,2 -3,2l-60 19c-21,7 -42,14 -63,21 -5,1 -11,3 -16,5 -16,5 -14,3 -24,-2l-62 -32c-2,-1 -4,-2 -7,-4 -2,0 -5,-2 -5,-4l0 0c2,0 24,12 27,14 10,4 18,9 28,14 9,4 18,9 27,14 4,2 12,-2 16,-4l78 -24c4,-1 61,-20 63,-20 2,-1 2,0 2,-3 0,-1 0,-2 -1,-4 0,2 -1,2 -3,3l-60 19c-26,9 -53,17 -79,25 -5,2 -12,5 -17,3 -2,-1 -4,-3 -7,-4 -2,-1 -4,-3 -7,-4 -4,-2 -9,-5 -13,-7l-42 -21c-2,-2 -4,-3 -7,-4 -2,-1 -5,-2 -5,-4z"/>
  <path class="fil3" d="M42 181c-1,1 -1,5 -1,6l55 29c5,2 10,5 14,7 19,9 11,10 30,4 8,-3 140,-44 142,-45 1,-1 1,-5 0,-6 0,2 -1,2 -3,2l-60 19c-26,9 -53,17 -79,26 -16,5 -14,3 -24,-2l-20 -11c-9,-5 -19,-9 -28,-14l-21 -11c-2,0 -5,-2 -5,-4z"/>
  <path class="fil2" d="M43 165c-1,0 -1,0 -1,1 0,2 3,3 5,4 3,1 5,2 7,4l42 21c4,2 9,5 13,7 3,1 5,3 7,4 3,1 5,3 7,4 5,2 12,-1 17,-3 26,-8 53,-16 79,-25l60 -19c2,-1 3,-1 3,-3 -1,0 -1,0 -2,0 -2,-1 -27,8 -31,9 -20,6 -42,13 -62,20 -10,3 -21,6 -32,9 -5,2 -10,4 -15,5 -19,6 -11,5 -30,-3 -4,-2 -9,-5 -13,-7l-40 -21c-3,-1 -12,-7 -14,-7z"/>
  <path class="fil2" d="M43 180c-1,1 -1,1 -1,1 0,2 3,4 5,4l21 11c9,5 19,9 28,14l20 11c10,5 8,7 24,2 26,-9 53,-17 79,-26l60 -19c2,0 3,0 3,-2 -1,-1 -1,-1 -2,-1 -2,0 -27,8 -31,9 -10,4 -21,7 -31,10 -22,7 -41,13 -63,20 -5,1 -10,3 -15,5 -17,5 -11,5 -30,-4 -6,-3 -65,-34 -67,-35z"/>
  <path class="fil1" d="M130 134c1,1 3,2 4,2 0,1 -6,4 -1,9 8,8 35,2 35,7 -1,4 -8,3 -12,5 11,2 8,7 17,4 4,-2 4,-3 8,-1 1,1 2,2 4,1 1,0 3,-1 4,-1 -1,-2 -4,-2 -5,-4 0,0 7,-3 1,-9 -10,-8 -35,1 -36,-7 5,-2 10,-2 15,-2 -1,-1 -5,-5 -6,-6 -2,-1 -9,0 -11,1 -8,1 -4,1 -9,-1 -2,-1 -6,1 -8,2z"/>
  <path class="fil2" d="M42 173l0 0c0,2 3,4 5,4 3,2 5,3 7,4l62 32c10,5 8,7 24,2 5,-2 11,-4 16,-5 21,-7 42,-14 63,-21l60 -19c2,0 3,0 3,-2l-1 -1c-2,0 -59,19 -63,20l-78 24c-4,2 -12,6 -16,4 -9,-5 -18,-10 -27,-14 -10,-5 -18,-10 -28,-14 -3,-2 -25,-14 -27,-14z"/>
  <path class="fil2" d="M42 157l0 1c0,2 3,3 5,4 3,1 5,2 7,4l42 21c4,2 9,5 13,7 17,8 14,11 31,5 26,-8 53,-16 79,-25l60 -19c2,-1 3,-1 3,-3l-1 0c-2,0 -27,8 -31,10 -11,3 -21,6 -32,10 -21,6 -42,13 -63,19 -5,2 -10,3 -15,5 -4,2 -12,5 -16,3 -17,-8 -38,-19 -55,-28 -3,-2 -25,-13 -27,-14z"/>
 </g>
</svg>
