<?xml version="1.0" encoding="UTF-8"?>
<!DOCTYPE svg PUBLIC "-//W3C//DTD SVG 1.1//EN" "http://www.w3.org/Graphics/SVG/1.1/DTD/svg11.dtd">
<!-- Creator: CorelDRAW X7 -->
<svg xmlns="http://www.w3.org/2000/svg" xml:space="preserve" width="1.18991in" height="1.19604in" version="1.1" style="shape-rendering:geometricPrecision; text-rendering:geometricPrecision; image-rendering:optimizeQuality; fill-rule:evenodd; clip-rule:evenodd"
viewBox="0 0 177 178"
 xmlns:xlink="http://www.w3.org/1999/xlink">
 <defs>
  <style type="text/css">
   <![CDATA[
    .fil6 {fill:#52B1C3}
    .fil3 {fill:#5B3E31}
    .fil5 {fill:#ABB2B2}
    .fil4 {fill:#DC781A}
    .fil0 {fill:#F24B38}
    .fil1 {fill:#FEFEFE}
    .fil2 {fill:#FFF3C2}
   ]]>
  </style>
 </defs>
 <g id="Layer_x0020_1">
  <metadata id="CorelCorpID_0Corel-Layer"/>
  <g id="_322011408">
   <path class="fil0" d="M27 152c2,-4 3,-12 4,-16 1,-3 2,-6 3,-9 0,-3 1,-6 3,-7 3,-1 6,-2 8,-2 4,-2 23,-8 24,-9 0,0 0,-2 5,-7l1 -1c0,-6 1,-6 -2,-10 -1,-1 -3,-5 -4,-8 0,0 0,0 -1,0 -3,-1 -3,0 -4,-3 -1,-6 -2,-13 -1,-18l2 -1c1,-7 1,-13 6,-18l1 -3c1,1 1,1 1,0l2 -1 1 -1 -1 1 -2 1c-1,0 -1,0 -1,0 -1,1 -4,5 -6,8 -5,8 -5,18 -4,28 1,4 1,4 0,5 -5,-10 -3,-24 1,-34 3,-5 6,-9 10,-11 9,-7 23,-8 32,-1 13,11 17,34 10,46 -1,-1 -1,-2 0,-5 0,-7 1,-13 -1,-20 -1,-6 -6,-14 -11,-16 1,-1 1,-1 0,-1l-2 -1 -1 -1 -1 0 -1 -1 1 1 1 0 1 1 2 1c0,1 0,1 0,1 2,2 8,4 9,20l0 1 2 1c1,3 1,7 0,11 0,4 -1,6 -2,9l-4 1c0,0 1,0 0,1 0,0 0,0 -1,0 0,1 0,1 -1,2l0 1 0 0c-1,1 -3,4 -3,5 -2,3 -1,5 -1,8l1 1 1 1c0,0 4,5 4,6 1,1 0,1 1,1 4,1 17,6 23,8 12,5 10,2 14,18 1,4 3,13 5,17 0,-1 0,0 1,-1l3 -3c10,-13 16,-21 20,-39 5,-20 2,-39 -5,-57 -22,-48 -83,-69 -132,-36 -7,5 -13,10 -18,16 -4,6 -9,13 -13,21 -13,28 -8,66 12,90 2,3 6,8 8,9z"/>
   <path class="fil1" d="M108 108c0,-1 -4,-6 -4,-6l-1 -1c-3,1 -8,7 -10,8 -1,1 -2,2 -3,3l4 7c1,1 3,5 4,6l7 -11c0,1 -2,5 -3,7 -2,3 -3,5 -5,6 0,-3 -2,-5 -3,-7 -4,1 -2,4 -2,13 1,5 1,10 1,15 1,10 2,20 2,30 14,-2 21,-4 32,-9 5,-2 10,-5 13,-8l9 -6c1,-1 2,-1 2,-3 -2,-4 -4,-13 -5,-17 -4,-16 -2,-13 -14,-18 -6,-2 -19,-7 -23,-8 -1,0 -1,0 -1,1 0,0 -1,1 -1,1l-2 3c1,-2 1,-2 2,-3l1 -3c0,0 0,0 0,0z"/>
   <path class="fil1" d="M83 119c1,-1 1,-2 2,-4l2 -2c0,-1 0,-1 1,-1 -2,-1 -5,-4 -7,-6 -2,-1 -6,-4 -6,-5l-1 1c-5,5 -5,7 -5,7 -1,1 -20,7 -24,9 -2,0 -5,1 -8,2 -2,1 -3,4 -3,7 -1,3 -2,6 -3,9 -1,4 -2,12 -4,16l0 2c2,1 4,3 6,4 15,12 29,16 48,20 1,-4 3,-42 4,-52 0,-4 1,-5 -1,-6 -1,2 -2,2 -2,4 -1,0 -1,1 -1,1 -1,2 -1,1 -2,2 -2,-3 -3,-7 -5,-9l2 1c1,1 3,4 3,6l4 -6z"/>
   <path class="fil2" d="M69 70l1 9c1,1 1,2 0,3 0,1 0,1 0,1l0 0 -1 0c1,3 3,7 4,8 3,4 2,4 2,10 0,1 4,4 6,5 2,2 5,5 7,6l2 0c1,-1 2,-2 3,-3 2,-1 7,-7 10,-8l1 1 -1 -1 -1 -1c0,-3 -1,-5 1,-8 0,-1 2,-4 3,-5l0 0 0 -1 -6 4c-1,1 0,2 -3,2 -2,0 -3,0 -4,-1 -1,-3 3,-3 6,-3 2,0 4,-2 6,-3 3,-3 2,-2 2,-7 1,-2 1,-6 1,-8 0,-6 0,-13 -3,-18 -3,-4 -10,0 -16,0 -7,0 -13,-4 -17,1 -3,4 -3,11 -3,17z"/>
   <path class="fil3" d="M76 38l-1 1 -2 1c0,1 0,1 -1,0l-1 3c-5,5 -5,11 -6,18l0 -1 2 1c1,2 1,7 2,9 0,-6 0,-13 3,-17 4,-5 10,-1 17,-1 6,0 13,-4 16,0 3,5 3,12 3,18l2 -9 2 -1c-1,-16 -7,-18 -9,-20 0,0 0,0 0,-1l-2 -1 -1 -1 -1 0 -1 -1c-9,-2 -15,-2 -22,2z"/>
   <path class="fil4" d="M83 119c1,1 0,0 1,1 2,1 1,2 1,6 -1,10 -3,48 -4,52 5,0 10,1 14,0 0,-10 -1,-20 -2,-30 0,-5 0,-10 -1,-15 0,-9 -2,-12 2,-13 0,0 0,-1 0,-1l-4 -7 -2 0c-1,0 -1,0 -1,1l-2 2c-1,2 -1,3 -2,4z"/>
   <path class="fil5" d="M72 40c0,0 0,0 1,0l2 -1 1 -1c7,-4 13,-4 22,-2l1 1 1 0 1 1 2 1c1,0 1,0 0,1 5,2 10,10 11,16 2,7 1,13 1,20 -1,3 -1,4 0,5 7,-12 3,-35 -10,-46 -9,-7 -23,-6 -32,1 -4,2 -7,6 -10,11 -4,10 -6,24 -1,34 1,-1 1,-1 0,-5 -1,-10 -1,-20 4,-28 2,-3 5,-7 6,-8z"/>
   <path class="fil6" d="M108 70c0,2 0,6 -1,8 0,5 1,4 -2,7 -2,1 -4,3 -6,3 -3,0 -7,0 -6,3 1,1 2,1 4,1 3,0 2,-1 3,-2l6 -4c1,-1 1,-1 1,-2 1,0 1,0 1,0 1,-1 0,-1 0,-1 1,-3 2,-8 3,-11l1 -11 0 -1 -2 1 -2 9zm-2 17l0 0 0 0z"/>
   <path class="fil5" d="M108 83l4 -1c1,-3 2,-5 2,-9 1,-4 1,-8 0,-11l-2 -1 -1 11c-1,3 -2,8 -3,11z"/>
   <path class="fil5" d="M68 83l1 -1c-3,-7 -4,-14 -4,-22l0 1 -2 1c-1,5 0,12 1,18 1,3 1,2 4,3zm2 0l0 0c0,0 0,0 0,-1 1,-1 1,-2 0,-3l0 3 0 1 0 0z"/>
   <path class="fil6" d="M68 83c1,0 1,0 1,0l1 0 0 0 0 -1 0 -3 -1 -9c-1,-2 -1,-7 -2,-9l-2 -1c0,8 1,15 4,22l-1 1z"/>
   <path class="fil5" d="M84 120c-1,-1 0,0 -1,-1l-4 6c0,-2 -2,-5 -3,-6l-2 -1c2,2 3,6 5,9 1,-1 1,0 2,-2 0,0 0,-1 1,-1 0,-2 1,-2 2,-4z"/>
   <path class="fil5" d="M109 109c-1,0 0,0 -1,-1 0,0 0,0 0,0l-1 3c-1,1 -1,1 -2,3l2 -3c0,0 1,-1 1,-1 0,-1 0,-1 1,-1zm-15 10c0,0 0,1 0,1 1,2 3,4 3,7 2,-1 3,-3 5,-6 1,-2 3,-6 3,-7l-7 11c-1,-1 -3,-5 -4,-6z"/>
  </g>
 </g>
</svg>
