<?xml version="1.0" encoding="UTF-8"?>
<!DOCTYPE svg PUBLIC "-//W3C//DTD SVG 1.1//EN" "http://www.w3.org/Graphics/SVG/1.1/DTD/svg11.dtd">
<!-- Creator: CorelDRAW X7 -->
<svg xmlns="http://www.w3.org/2000/svg" xml:space="preserve" width="0.520197in" height="0.433488in" version="1.1" style="shape-rendering:geometricPrecision; text-rendering:geometricPrecision; image-rendering:optimizeQuality; fill-rule:evenodd; clip-rule:evenodd"
viewBox="0 0 86 72"
 xmlns:xlink="http://www.w3.org/1999/xlink">
 <defs>
  <style type="text/css">
   <![CDATA[
    .fil0 {fill:#36A7DE}
   ]]>
  </style>
 </defs>
 <g id="Layer_x0020_1">
  <metadata id="CorelCorpID_0Corel-Layer"/>
  <path class="fil0" d="M84 1c-4,2 -7,4 -11,5 -4,-4 -8,-6 -13,-6 -10,0 -18,8 -18,18 0,2 0,3 0,4 -14,-1 -27,-8 -36,-19 -2,3 -2,6 -2,9 0,7 3,12 7,16 -2,-1 -5,-1 -8,-3l0 0c0,9 7,17 15,18 -2,1 -3,1 -5,1 -1,0 -2,0 -3,0 2,7 8,12 16,12 -6,5 -13,8 -22,8 -1,0 -3,0 -4,0 8,5 17,8 27,8 33,0 50,-28 50,-52 0,-1 0,-1 0,-2 4,-3 7,-6 9,-10 -3,2 -6,3 -10,3 4,-2 6,-5 8,-10z"/>
 </g>
</svg>
